<svg width="1280" height="420" viewBox="0 0 1280 420" fill="none" xmlns="http://www.w3.org/2000/svg" role="img" aria-label="Data Quality SLO cover">

  <defs>
    <linearGradient id="g" x1="0" x2="1" y1="0" y2="1">
      <stop offset="0" stop-color="#fb923c" stop-opacity=".34"/>
      <stop offset=".54" stop-color="#2a1711" stop-opacity="0"/>
      <stop offset="1" stop-color="#f43f5e" stop-opacity=".30"/>
    </linearGradient>
    <filter id="grain" x="-20%" y="-20%" width="140%" height="140%">
      <feTurbulence type="fractalNoise" baseFrequency=".85" numOctaves="2" seed="43" result="noise"/>
      <feColorMatrix type="saturate" values="0"/>
      <feComponentTransfer><feFuncA type="table" tableValues="0 .10"/></feComponentTransfer>
      <feBlend mode="soft-light" in2="SourceGraphic"/>
    </filter>
  </defs>
  <rect width="1280" height="420" rx="30" fill="#2a1711"/>
  <rect width="1280" height="420" rx="30" fill="url(#g)" filter="url(#grain)"/>

  <rect x="0" y="0" width="426" height="420" fill="#fb923c" opacity=".18"/>
  <path d="M102 304c116-58 246-64 360-4 114 60 246 72 410-10 152-76 260-66 328-30" stroke="#f43f5e" stroke-width="14" stroke-linecap="round" opacity=".64"/>
  <text x="92" y="166" fill="#fff7ed" font-family="Space Grotesk, ui-sans-serif, system-ui" font-size="60" font-weight="850">Data Quality SLO</text>
  <text x="96" y="226" fill="#fed7aa" font-family="Space Grotesk, ui-sans-serif, system-ui" font-size="23">Check data quality SLO manifests for freshness,...</text>
  <text x="96" y="286" fill="#f43f5e" font-family="ui-monospace, SFMono-Regular, Menlo, monospace" font-size="18" font-weight="800">DATA QUALITY</text>
  <rect x="846" y="122" width="164" height="28" rx="8" fill="#fb923c" opacity=".85"/>
  <text x="862" y="141" fill="#fff7ed" font-family="ui-monospace, SFMono-Regular, Menlo, monospace" font-size="13">missing-freshness</text>
  <rect x="846" y="176" width="240" height="28" rx="8" fill="#f43f5e" opacity=".85"/>
  <text x="862" y="195" fill="#fff7ed" font-family="ui-monospace, SFMono-Regular, Menlo, monospace" font-size="13">unknown-completeness</text>
  <rect x="846" y="230" width="270" height="28" rx="8" fill="#fb923c" opacity=".85"/>
  <text x="862" y="249" fill="#fff7ed" font-family="ui-monospace, SFMono-Regular, Menlo, monospace" font-size="13">ownerless-slo</text>
</svg>
